{"title":"Brake.2012.BRRip.XviD-RLF","uid":7335467,"size":768220346,"categoryP":"video","categoryS":"movies","magnet":"?xt=urn:btih:4fa1da3e48f27d0d0dfc818975a6fee1e1a3c6fb&amp;dn=Brake.2012.BRRip.XviD-RLF&amp;tr=udp%3A%2F%2Ftracker.openbittorrent.com%3A80&amp;tr=udp%3A%2F%2Fopen.demonii.com%3A1337&amp;tr=udp%3A%2F%2Ftracker.coppersurfer.tk%3A6969&amp;tr=udp%3A%2F%2Fexodus.desync.com%3A6969","seeders":1,"leechers":0,"uploader":"rlf-rls","files":-1,"time":1339062341,"description":"Brake.2012.BRRip.XviD-RLF\n~~~~~~~~~~~~~~~~~~~~~~~~~                                            \n\nGENERAL:\n\nComplete name                    : rlf-brake.avi\nFormat                           : AVI\nFormat/Info                      : Audio Video Interleave\nFile size                        : 723 MiB\nDuration                         : 1h 31mn\nOverall bit rate                 : 1 110 Kbps\nLanguage                         : English\nSubs                             : Polish, English (Custom)\nEncoder                          : Ralf\n\nVideo:\n\nFormat                           : MPEG-4 Visual\nFormat profile                   : Advanced Simple@L5\nFormat settings, BVOP            : 2\nFormat settings, QPel            : No\nFormat settings, GMC             : No warppoints\nFormat settings, Matrix          : H.263\nMuxing mode                      : Packed bitstream\nCodec ID                         : XVID\nDuration                         : 1h 31mn\nBit rate                         : 969 Kbps\nWidth                            : 688 pixels\nHeight                           : 384 pixels\nDisplay aspect ratio             : 16:9\nFrame rate                       : 23.976 fps\nColor space                      : YUV\nChroma subsampling               : 4:2:0\nBit depth                        : 8 bits\nScan type                        : Progressive\nBits/(Pixel Frame)               : 0.153\nStream size                      : 632 MiB (87%)      \nStream size                      : Xvid 64\n\nAudio:\n\nFormat                           : MPEG Audio\nCodec ID/Hint                    : MP3\nDuration                         : 1h 31mn\nBit rate mode                    : Constant\nBit rate                         : 128 Kbps\nChannel(s)                       : 2 channels\nSampling rate                    : 48.0 KHz\nStream size                      : 83.5 MiB (12%)\nAlignment                        : Split accross interleaves\nInterleave, duration             : 24 ms (0.58 video frame)\nInterleave, preload duration     : 470 ms\n                   \nMOVIE INFO:\n\nA Secret Service Agent is held captive in the trunk of a car and endures \nmental and physical torture as terrorists attempt to extract information \nfor their plot against the President of the United States. \n                                           &lt;a href=&quot;\nhttp://www.imdb.com/title/tt1990181/&quot; rel=&quot;nofollow&quot; target=&quot;_NEW&quot;&gt;\nhttp://www.imdb.com/title/tt1990181/&lt;/a&gt; &lt;a href=&quot;\nhttp://www.filmweb.pl/film/Brake-2012-643843&quot; rel=&quot;nofollow&quot; target=&quot;_NEW&quot;&gt;\nhttp://www.filmweb.pl/film/Brake-2012-643843&lt;/a&gt;\n                                               \nSOURCE:\n\nHAiDEAF's 720p.BluRay.x264 (THX)\n\nSCREENS:\n &lt;a href=&quot;\nhttp://image.bayimg.com/dapnnaada.jpg&quot; rel=&quot;nofollow&quot; target=&quot;_NEW&quot;&gt;\nhttp://image.bayimg.com/dapnnaada.jpg&lt;/a&gt; &lt;a href=&quot;\nhttp://image.bayimg.com/dapnoaada.jpg&quot; rel=&quot;nofollow&quot; target=&quot;_NEW&quot;&gt;\nhttp://image.bayimg.com/dapnoaada.jpg&lt;/a&gt; &lt;a href=&quot;\nhttp://image.bayimg.com/dapnpaada.jpg&quot; rel=&quot;nofollow&quot; target=&quot;_NEW&quot;&gt;\nhttp://image.bayimg.com/dapnpaada.jpg&lt;/a&gt; &lt;a href=&quot;\nhttp://image.bayimg.com/eapncaada.jpg&quot; rel=&quot;nofollow&quot; target=&quot;_NEW&quot;&gt;\nhttp://image.bayimg.com/eapncaada.jpg&lt;/a&gt;","torrent":{"xt":"urn:btih:4fa1da3e48f27d0d0dfc818975a6fee1e1a3c6fb","amp;dn":"Brake.2012.BRRip.XviD-RLF","amp;tr":["udp%3A%2F%2Ftracker.openbittorrent.com%3A80","udp%3A%2F%2Fopen.demonii.com%3A1337","udp%3A%2F%2Ftracker.coppersurfer.tk%3A6969","udp%3A%2F%2Fexodus.desync.com%3A6969"],"infoHash":"4fa1da3e48f27d0d0dfc818975a6fee1e1a3c6fb","infoHashBuffer":{"type":"Buffer","data":[79,161,218,62,72,242,125,13,13,252,129,137,117,166,254,225,225,163,198,251]},"announce":[],"urlList":[]}}